<svg width="100" height="100" viewBox="0 0 100 100" fill="none" xmlns="http://www.w3.org/2000/svg">
<g clip-path="url(#clip0_2223_48)" filter="url(#filter0_d_2223_48)">
<rect x="10" y="10" width="80" height="80" rx="40" fill="url(#paint0_linear_2223_48)"/>
<path fill-rule="evenodd" clip-rule="evenodd" d="M50 25C36.2147 25 25 36.2147 25 50C25 54.8496 26.3764 59.5071 28.9933 63.5484L25.1954 71.9143C24.846 72.6862 24.9735 73.5888 25.5217 74.2331C25.9424 74.7267 26.5536 75 27.183 75C27.3751 75 27.5689 74.9752 27.761 74.9222L38.2255 72.0518C41.8378 73.983 45.8891 75 50 75C63.7853 75 75 63.7853 75 50C75 36.2147 63.7853 25 50 25ZM50 70.634C46.3495 70.634 42.7554 69.6618 39.6101 67.825C39.2722 67.6279 38.8929 67.5268 38.5087 67.5268C38.3149 67.5268 38.1211 67.5533 37.9306 67.6047L31.0951 69.4796L33.4752 64.2341C33.7982 63.5203 33.7154 62.6888 33.2582 62.0545C30.7109 58.5249 29.366 54.356 29.366 50C29.366 38.623 38.6213 29.366 50 29.366C61.3787 29.366 70.634 38.6213 70.634 50C70.634 61.3787 61.3787 70.634 50 70.634Z" fill="white"/>
<path fill-rule="evenodd" clip-rule="evenodd" d="M59.6111 53.7433C58.5643 53.1172 57.2012 52.4183 55.9689 52.9218C55.0231 53.3094 54.4186 54.7901 53.8058 55.547C53.4911 55.9346 53.1151 55.9959 52.6315 55.8021C49.0787 54.3876 46.3574 52.0158 44.3981 48.7496C44.0668 48.2411 44.1248 47.842 44.5256 47.3699C45.1185 46.6726 45.8606 45.8809 46.0212 44.9418C46.1819 44.0027 45.7413 42.9046 45.3521 42.0681C44.8552 40.9998 44.3003 39.4744 43.2304 38.8699C42.2449 38.3133 40.9497 38.6247 40.0718 39.3386C38.558 40.5709 37.8276 42.5021 37.8491 44.4168C37.8557 44.96 37.922 45.5033 38.0495 46.0283C38.3543 47.2904 38.9389 48.4697 39.5948 49.591C40.0901 50.4357 40.6283 51.2556 41.2097 52.0456C43.1095 54.6261 45.473 56.8687 48.2092 58.5449C49.5773 59.383 51.0497 60.1167 52.5751 60.6202C54.2861 61.185 55.8099 61.773 57.6566 61.4235C59.5912 61.0558 61.4976 59.86 62.2644 57.995C62.4913 57.4435 62.6056 56.829 62.4781 56.246C62.2147 55.0418 60.5833 54.3247 59.6094 53.7417L59.6111 53.7433Z" fill="white"/>
</g>
<defs>
<filter id="filter0_d_2223_48" x="0" y="0" width="100" height="100" filterUnits="userSpaceOnUse" color-interpolation-filters="sRGB">
<feFlood flood-opacity="0" result="BackgroundImageFix"/>
<feColorMatrix in="SourceAlpha" type="matrix" values="0 0 0 0 0 0 0 0 0 0 0 0 0 0 0 0 0 0 127 0" result="hardAlpha"/>
<feOffset/>
<feGaussianBlur stdDeviation="5"/>
<feColorMatrix type="matrix" values="0 0 0 0 0.0352941 0 0 0 0 0.231373 0 0 0 0 0.341176 0 0 0 0.3 0"/>
<feBlend mode="normal" in2="BackgroundImageFix" result="effect1_dropShadow_2223_48"/>
<feBlend mode="normal" in="SourceGraphic" in2="effect1_dropShadow_2223_48" result="shape"/>
</filter>
<linearGradient id="paint0_linear_2223_48" x1="10" y1="50" x2="90" y2="50" gradientUnits="userSpaceOnUse">
<stop stop-color="#1AC133"/>
<stop offset="1" stop-color="#7BF385"/>
</linearGradient>
<clipPath id="clip0_2223_48">
<rect width="80" height="80" fill="white" transform="translate(10 10)"/>
</clipPath>
</defs>
</svg>
