<svg width="210" height="156" viewBox="0 0 210 156" fill="none" xmlns="http://www.w3.org/2000/svg">
<rect width="210" height="156" rx="34" fill="#093B57"/>
<path d="M68.4941 102.61C68.4941 101.35 68.7461 100.228 69.2501 99.244C69.7661 98.26 70.4981 97.498 71.4461 96.958C72.3941 96.406 73.5101 96.13 74.7941 96.13C75.8981 96.13 76.8821 96.34 77.7461 96.76C78.6221 97.168 79.3301 97.75 79.8701 98.506C80.4221 99.262 80.7881 100.144 80.9681 101.152H76.7561C76.5641 100.732 76.2881 100.408 75.9281 100.18C75.5801 99.94 75.1781 99.82 74.7221 99.82C74.0501 99.82 73.5161 100.072 73.1201 100.576C72.7361 101.08 72.5441 101.758 72.5441 102.61C72.5441 103.462 72.7361 104.14 73.1201 104.644C73.5161 105.148 74.0501 105.4 74.7221 105.4C75.1781 105.4 75.5801 105.286 75.9281 105.058C76.2881 104.818 76.5641 104.488 76.7561 104.068H80.9681C80.7881 105.076 80.4221 105.958 79.8701 106.714C79.3301 107.47 78.6221 108.058 77.7461 108.478C76.8821 108.886 75.8981 109.09 74.7941 109.09C73.5101 109.09 72.3941 108.82 71.4461 108.28C70.4981 107.728 69.7661 106.96 69.2501 105.976C68.7461 104.992 68.4941 103.87 68.4941 102.61ZM81.8668 103.924C81.8668 102.856 82.0468 101.932 82.4068 101.152C82.7788 100.36 83.2828 99.76 83.9188 99.352C84.5548 98.932 85.2688 98.722 86.0608 98.722C86.7208 98.722 87.2908 98.86 87.7708 99.136C88.2508 99.4 88.6168 99.766 88.8688 100.234V98.848H92.8468V109H88.8688V107.614C88.6168 108.082 88.2508 108.454 87.7708 108.73C87.2908 108.994 86.7208 109.126 86.0608 109.126C85.2688 109.126 84.5548 108.922 83.9188 108.514C83.2828 108.094 82.7788 107.494 82.4068 106.714C82.0468 105.922 81.8668 104.992 81.8668 103.924ZM88.8688 103.924C88.8688 103.384 88.7308 102.964 88.4548 102.664C88.1788 102.364 87.8248 102.214 87.3928 102.214C86.9608 102.214 86.6068 102.364 86.3308 102.664C86.0548 102.964 85.9168 103.384 85.9168 103.924C85.9168 104.464 86.0548 104.884 86.3308 105.184C86.6068 105.484 86.9608 105.634 87.3928 105.634C87.8248 105.634 88.1788 105.484 88.4548 105.184C88.7308 104.884 88.8688 104.464 88.8688 103.924ZM98.6372 95.68V109H94.6412V95.68H98.6372ZM102.458 98.038C101.762 98.038 101.204 97.852 100.784 97.48C100.364 97.108 100.154 96.64 100.154 96.076C100.154 95.5 100.364 95.026 100.784 94.654C101.204 94.27 101.762 94.078 102.458 94.078C103.142 94.078 103.694 94.27 104.114 94.654C104.534 95.026 104.744 95.5 104.744 96.076C104.744 96.64 104.534 97.108 104.114 97.48C103.694 97.852 103.142 98.038 102.458 98.038ZM104.438 98.848V109H100.442V98.848H104.438ZM105.703 103.924C105.703 102.856 105.883 101.932 106.243 101.152C106.615 100.36 107.119 99.76 107.755 99.352C108.391 98.932 109.105 98.722 109.897 98.722C110.557 98.722 111.121 98.86 111.589 99.136C112.069 99.4 112.435 99.766 112.687 100.234V95.68H116.683V109H112.687V107.614C112.435 108.082 112.069 108.454 111.589 108.73C111.121 108.994 110.557 109.126 109.897 109.126C109.105 109.126 108.391 108.922 107.755 108.514C107.119 108.094 106.615 107.494 106.243 106.714C105.883 105.922 105.703 104.992 105.703 103.924ZM112.705 103.924C112.705 103.384 112.567 102.964 112.291 102.664C112.015 102.364 111.661 102.214 111.229 102.214C110.797 102.214 110.443 102.364 110.167 102.664C109.891 102.964 109.753 103.384 109.753 103.924C109.753 104.464 109.891 104.884 110.167 105.184C110.443 105.484 110.797 105.634 111.229 105.634C111.661 105.634 112.015 105.484 112.291 105.184C112.567 104.884 112.705 104.464 112.705 103.924ZM117.937 103.924C117.937 102.856 118.117 101.932 118.477 101.152C118.849 100.36 119.353 99.76 119.989 99.352C120.625 98.932 121.339 98.722 122.131 98.722C122.791 98.722 123.361 98.86 123.841 99.136C124.321 99.4 124.687 99.766 124.939 100.234V98.848H128.917V109H124.939V107.614C124.687 108.082 124.321 108.454 123.841 108.73C123.361 108.994 122.791 109.126 122.131 109.126C121.339 109.126 120.625 108.922 119.989 108.514C119.353 108.094 118.849 107.494 118.477 106.714C118.117 105.922 117.937 104.992 117.937 103.924ZM124.939 103.924C124.939 103.384 124.801 102.964 124.525 102.664C124.249 102.364 123.895 102.214 123.463 102.214C123.031 102.214 122.677 102.364 122.401 102.664C122.125 102.964 121.987 103.384 121.987 103.924C121.987 104.464 122.125 104.884 122.401 105.184C122.677 105.484 123.031 105.634 123.463 105.634C123.895 105.634 124.249 105.484 124.525 105.184C124.801 104.884 124.939 104.464 124.939 103.924ZM130.172 103.924C130.172 102.856 130.352 101.932 130.712 101.152C131.084 100.36 131.588 99.76 132.224 99.352C132.86 98.932 133.574 98.722 134.366 98.722C135.026 98.722 135.59 98.86 136.058 99.136C136.538 99.4 136.904 99.766 137.156 100.234V95.68H141.152V109H137.156V107.614C136.904 108.082 136.538 108.454 136.058 108.73C135.59 108.994 135.026 109.126 134.366 109.126C133.574 109.126 132.86 108.922 132.224 108.514C131.588 108.094 131.084 107.494 130.712 106.714C130.352 105.922 130.172 104.992 130.172 103.924ZM137.174 103.924C137.174 103.384 137.036 102.964 136.76 102.664C136.484 102.364 136.13 102.214 135.698 102.214C135.266 102.214 134.912 102.364 134.636 102.664C134.36 102.964 134.222 103.384 134.222 103.924C134.222 104.464 134.36 104.884 134.636 105.184C134.912 105.484 135.266 105.634 135.698 105.634C136.13 105.634 136.484 105.484 136.76 105.184C137.036 104.884 137.174 104.464 137.174 103.924Z" fill="#FE5757"/>
<path d="M58.6882 122.09C58.3642 121.466 57.9142 120.998 57.3382 120.686C56.7622 120.362 56.0962 120.2 55.3402 120.2C54.5122 120.2 53.7742 120.386 53.1262 120.758C52.4782 121.13 51.9682 121.658 51.5962 122.342C51.2362 123.026 51.0562 123.818 51.0562 124.718C51.0562 125.618 51.2362 126.416 51.5962 127.112C51.9682 127.796 52.4782 128.324 53.1262 128.696C53.7742 129.068 54.5122 129.254 55.3402 129.254C56.4562 129.254 57.3622 128.942 58.0582 128.318C58.7542 127.694 59.1802 126.848 59.3362 125.78H54.6382V124.142H61.5322V125.744C61.4002 126.716 61.0522 127.61 60.4882 128.426C59.9362 129.242 59.2102 129.896 58.3102 130.388C57.4222 130.868 56.4322 131.108 55.3402 131.108C54.1642 131.108 53.0902 130.838 52.1182 130.298C51.1462 129.746 50.3722 128.984 49.7962 128.012C49.2322 127.04 48.9502 125.942 48.9502 124.718C48.9502 123.494 49.2322 122.396 49.7962 121.424C50.3722 120.452 51.1462 119.696 52.1182 119.156C53.1022 118.604 54.1762 118.328 55.3402 118.328C56.6722 118.328 57.8542 118.658 58.8862 119.318C59.9302 119.966 60.6862 120.89 61.1542 122.09H58.6882ZM62.8721 125.996C62.8721 125 63.0761 124.118 63.4841 123.35C63.9041 122.582 64.4681 121.988 65.1761 121.568C65.8961 121.136 66.6881 120.92 67.5521 120.92C68.3321 120.92 69.0101 121.076 69.5861 121.388C70.1741 121.688 70.6421 122.066 70.9901 122.522V121.082H73.0601V131H70.9901V129.524C70.6421 129.992 70.1681 130.382 69.5681 130.694C68.9681 131.006 68.2841 131.162 67.5161 131.162C66.6641 131.162 65.8841 130.946 65.1761 130.514C64.4681 130.07 63.9041 129.458 63.4841 128.678C63.0761 127.886 62.8721 126.992 62.8721 125.996ZM70.9901 126.032C70.9901 125.348 70.8461 124.754 70.5581 124.25C70.2821 123.746 69.9161 123.362 69.4601 123.098C69.0041 122.834 68.5121 122.702 67.9841 122.702C67.4561 122.702 66.9641 122.834 66.5081 123.098C66.0521 123.35 65.6801 123.728 65.3921 124.232C65.1161 124.724 64.9781 125.312 64.9781 125.996C64.9781 126.68 65.1161 127.28 65.3921 127.796C65.6801 128.312 66.0521 128.708 66.5081 128.984C66.9761 129.248 67.4681 129.38 67.9841 129.38C68.5121 129.38 69.0041 129.248 69.4601 128.984C69.9161 128.72 70.2821 128.336 70.5581 127.832C70.8461 127.316 70.9901 126.716 70.9901 126.032ZM77.8073 122.522C78.1073 122.018 78.5033 121.628 78.9953 121.352C79.4993 121.064 80.0933 120.92 80.7773 120.92V123.044H80.2553C79.4513 123.044 78.8393 123.248 78.4193 123.656C78.0113 124.064 77.8073 124.772 77.8073 125.78V131H75.7553V121.082H77.8073V122.522ZM81.9795 125.996C81.9795 125 82.1835 124.118 82.5915 123.35C83.0115 122.582 83.5755 121.988 84.2835 121.568C85.0035 121.136 85.7955 120.92 86.6595 120.92C87.4395 120.92 88.1175 121.076 88.6935 121.388C89.2815 121.688 89.7495 122.066 90.0975 122.522V121.082H92.1675V131H90.0975V129.524C89.7495 129.992 89.2755 130.382 88.6755 130.694C88.0755 131.006 87.3915 131.162 86.6235 131.162C85.7715 131.162 84.9915 130.946 84.2835 130.514C83.5755 130.07 83.0115 129.458 82.5915 128.678C82.1835 127.886 81.9795 126.992 81.9795 125.996ZM90.0975 126.032C90.0975 125.348 89.9535 124.754 89.6655 124.25C89.3895 123.746 89.0235 123.362 88.5675 123.098C88.1115 122.834 87.6195 122.702 87.0915 122.702C86.5635 122.702 86.0715 122.834 85.6155 123.098C85.1595 123.35 84.7875 123.728 84.4995 124.232C84.2235 124.724 84.0855 125.312 84.0855 125.996C84.0855 126.68 84.2235 127.28 84.4995 127.796C84.7875 128.312 85.1595 128.708 85.6155 128.984C86.0835 129.248 86.5755 129.38 87.0915 129.38C87.6195 129.38 88.1115 129.248 88.5675 128.984C89.0235 128.72 89.3895 128.336 89.6655 127.832C89.9535 127.316 90.0975 126.716 90.0975 126.032ZM99.8667 120.92C100.647 120.92 101.343 121.082 101.955 121.406C102.579 121.73 103.065 122.21 103.413 122.846C103.761 123.482 103.935 124.25 103.935 125.15V131H101.901V125.456C101.901 124.568 101.679 123.89 101.235 123.422C100.791 122.942 100.185 122.702 99.4167 122.702C98.6487 122.702 98.0367 122.942 97.5807 123.422C97.1367 123.89 96.9147 124.568 96.9147 125.456V131H94.8627V121.082H96.9147V122.216C97.2507 121.808 97.6767 121.49 98.1927 121.262C98.7207 121.034 99.2787 120.92 99.8667 120.92ZM108.946 122.756V128.246C108.946 128.618 109.03 128.888 109.198 129.056C109.378 129.212 109.678 129.29 110.098 129.29H111.358V131H109.738C108.814 131 108.106 130.784 107.614 130.352C107.122 129.92 106.876 129.218 106.876 128.246V122.756H105.706V121.082H106.876V118.616H108.946V121.082H111.358V122.756H108.946ZM114.293 119.768C113.921 119.768 113.609 119.642 113.357 119.39C113.105 119.138 112.979 118.826 112.979 118.454C112.979 118.082 113.105 117.77 113.357 117.518C113.609 117.266 113.921 117.14 114.293 117.14C114.653 117.14 114.959 117.266 115.211 117.518C115.463 117.77 115.589 118.082 115.589 118.454C115.589 118.826 115.463 119.138 115.211 119.39C114.959 119.642 114.653 119.768 114.293 119.768ZM115.301 121.082V131H113.249V121.082H115.301ZM119.814 129.326H124.314V131H117.438V129.326L121.956 122.756H117.438V121.082H124.314V122.756L119.814 129.326ZM125.784 125.996C125.784 125 125.988 124.118 126.396 123.35C126.816 122.582 127.38 121.988 128.088 121.568C128.808 121.136 129.6 120.92 130.464 120.92C131.244 120.92 131.922 121.076 132.498 121.388C133.086 121.688 133.554 122.066 133.902 122.522V121.082H135.972V131H133.902V129.524C133.554 129.992 133.08 130.382 132.48 130.694C131.88 131.006 131.196 131.162 130.428 131.162C129.576 131.162 128.796 130.946 128.088 130.514C127.38 130.07 126.816 129.458 126.396 128.678C125.988 127.886 125.784 126.992 125.784 125.996ZM133.902 126.032C133.902 125.348 133.758 124.754 133.47 124.25C133.194 123.746 132.828 123.362 132.372 123.098C131.916 122.834 131.424 122.702 130.896 122.702C130.368 122.702 129.876 122.834 129.42 123.098C128.964 123.35 128.592 123.728 128.304 124.232C128.028 124.724 127.89 125.312 127.89 125.996C127.89 126.68 128.028 127.28 128.304 127.796C128.592 128.312 128.964 128.708 129.42 128.984C129.888 129.248 130.38 129.38 130.896 129.38C131.424 129.38 131.916 129.248 132.372 128.984C132.828 128.72 133.194 128.336 133.47 127.832C133.758 127.316 133.902 126.716 133.902 126.032ZM137.983 125.996C137.983 125 138.187 124.118 138.595 123.35C139.015 122.582 139.579 121.988 140.287 121.568C141.007 121.136 141.805 120.92 142.681 120.92C143.329 120.92 143.965 121.064 144.589 121.352C145.225 121.628 145.729 122 146.101 122.468V117.68H148.171V131H146.101V129.506C145.765 129.986 145.297 130.382 144.697 130.694C144.109 131.006 143.431 131.162 142.663 131.162C141.799 131.162 141.007 130.946 140.287 130.514C139.579 130.07 139.015 129.458 138.595 128.678C138.187 127.886 137.983 126.992 137.983 125.996ZM146.101 126.032C146.101 125.348 145.957 124.754 145.669 124.25C145.393 123.746 145.027 123.362 144.571 123.098C144.115 122.834 143.623 122.702 143.095 122.702C142.567 122.702 142.075 122.834 141.619 123.098C141.163 123.35 140.791 123.728 140.503 124.232C140.227 124.724 140.089 125.312 140.089 125.996C140.089 126.68 140.227 127.28 140.503 127.796C140.791 128.312 141.163 128.708 141.619 128.984C142.087 129.248 142.579 129.38 143.095 129.38C143.623 129.38 144.115 129.248 144.571 128.984C145.027 128.72 145.393 128.336 145.669 127.832C145.957 127.316 146.101 126.716 146.101 126.032ZM150.183 125.996C150.183 125 150.387 124.118 150.795 123.35C151.215 122.582 151.779 121.988 152.487 121.568C153.207 121.136 153.999 120.92 154.863 120.92C155.643 120.92 156.321 121.076 156.897 121.388C157.485 121.688 157.953 122.066 158.301 122.522V121.082H160.371V131H158.301V129.524C157.953 129.992 157.479 130.382 156.879 130.694C156.279 131.006 155.595 131.162 154.827 131.162C153.975 131.162 153.195 130.946 152.487 130.514C151.779 130.07 151.215 129.458 150.795 128.678C150.387 127.886 150.183 126.992 150.183 125.996ZM158.301 126.032C158.301 125.348 158.157 124.754 157.869 124.25C157.593 123.746 157.227 123.362 156.771 123.098C156.315 122.834 155.823 122.702 155.295 122.702C154.767 122.702 154.275 122.834 153.819 123.098C153.363 123.35 152.991 123.728 152.703 124.232C152.427 124.724 152.289 125.312 152.289 125.996C152.289 126.68 152.427 127.28 152.703 127.796C152.991 128.312 153.363 128.708 153.819 128.984C154.287 129.248 154.779 129.38 155.295 129.38C155.823 129.38 156.315 129.248 156.771 128.984C157.227 128.72 157.593 128.336 157.869 127.832C158.157 127.316 158.301 126.716 158.301 126.032Z" fill="white"/>
<rect x="60" width="80" height="80"/>
</svg>
