<svg width="153" height="134" viewBox="0 0 153 134" fill="none" xmlns="http://www.w3.org/2000/svg">
<path d="M60.7637 36.3978C61.3657 36.3978 61.9522 36.4693 62.5147 36.5982C63.0757 32.7775 63.8732 28.9778 64.7034 25.2145C63.4312 24.9552 62.1137 24.8179 60.7637 24.8179C59.3385 24.8179 57.9502 24.972 56.6128 25.2608C56.8692 29.1348 57.477 32.9947 58.225 36.8253C59.0197 36.5505 59.874 36.3992 60.7637 36.3992V36.3978Z" fill="white"/>
<path d="M56.0178 38.0238C53.3474 35.208 50.8427 32.224 48.3862 29.2358C46.3023 30.9486 44.5867 33.0846 43.3755 35.5121C46.597 37.728 50.0253 39.6636 53.5188 41.4731C54.0076 40.0995 54.8845 38.9082 56.0178 38.0238Z" fill="white"/>
<path d="M53.0839 43.9957C53.0839 43.9704 53.0853 43.9466 53.0853 43.9214C49.1966 44.2311 45.2753 44.3082 41.3837 44.3461C41.4347 47.1282 42.0835 49.7646 43.2083 52.1361C46.9682 51.026 50.6345 49.581 54.2428 48.007C53.5089 46.8423 53.0839 45.4687 53.0839 43.9957Z" fill="white"/>
<path d="M55.9045 49.8794C53.7242 53.0806 51.34 56.1613 48.943 59.1957C51.0694 60.8174 53.5443 62.0101 56.2388 62.6478C57.7065 59.0486 58.8512 55.3119 59.857 51.5403C58.3667 51.3665 57.0081 50.7722 55.9045 49.8794Z" fill="white"/>
<path d="M62.3843 51.4242C63.5545 55.1075 64.5023 58.8736 65.4047 62.6214C68.0963 61.9669 70.567 60.7573 72.6849 59.1217C70.7568 55.7424 68.5185 52.5272 66.1668 49.3975C65.1454 50.3982 63.8421 51.1158 62.3843 51.4242Z" fill="white"/>
<path d="M68.3981 43.1631C68.4278 43.4364 68.4448 43.7139 68.4448 43.9956C68.4448 45.2038 68.1587 46.3447 67.6529 47.358C71.2938 48.7498 74.8595 50.3658 78.3842 52.0043C79.4934 49.6216 80.121 46.974 80.1479 44.1848C76.2748 43.5681 72.3393 43.2948 68.3981 43.1631Z" fill="white"/>
<path d="M64.8493 37.5627C66.0818 38.3308 67.0777 39.4338 67.7067 40.7443C71.0756 38.7961 74.5762 37.0455 78.0668 35.3412C76.8287 32.9235 75.089 30.8015 72.9838 29.1069C70.0811 31.7195 67.4107 34.5955 64.8507 37.5613L64.8493 37.5627Z" fill="white"/>
<path d="M6.04632 107.248C4.58573 106.656 3.4184 105.779 2.54432 104.618C1.67023 103.458 1.20982 102.06 1.16165 100.425H7.69815C7.79307 101.348 8.11748 102.053 8.66857 102.538C9.21965 103.025 9.9379 103.267 10.8233 103.267C11.7087 103.267 12.4511 103.06 12.9781 102.645C13.5051 102.23 13.7686 101.655 13.7686 100.921C13.7686 100.306 13.5589 99.7955 13.1396 99.3932C12.7202 98.991 12.206 98.6588 11.5954 98.3981C10.9848 98.1374 10.1164 97.8417 8.99157 97.5095C7.3624 97.0119 6.03357 96.5143 5.00507 96.0168C3.97515 95.5192 3.08973 94.7848 2.3474 93.8135C1.60507 92.8422 1.2339 91.5752 1.2339 90.011C1.2339 87.69 2.0839 85.8707 3.7839 84.556C5.4839 83.2413 7.69957 82.584 10.4281 82.584C13.1566 82.584 15.4445 83.2413 17.1445 84.556C18.8445 85.8707 19.754 87.7012 19.8744 90.046H13.2302C13.1821 89.2401 12.8832 88.6066 12.3321 88.1441C11.781 87.6816 11.0755 87.4517 10.2127 87.4517C9.4704 87.4517 8.87115 87.6465 8.4164 88.039C7.96165 88.43 7.73357 88.9934 7.73357 89.7265C7.73357 90.5324 8.11607 91.1603 8.88248 91.6102C9.6489 92.0601 10.846 92.5465 12.4737 93.0664C14.1015 93.6117 15.4247 94.1331 16.4432 94.6306C17.4604 95.1282 18.3402 95.8514 19.0825 96.7975C19.8248 97.7449 20.196 98.9657 20.196 100.458C20.196 101.951 19.8305 103.172 19.1009 104.332C18.3699 105.493 17.3102 106.418 15.9219 107.103C14.5336 107.792 12.8931 108.133 11.0018 108.133C9.11057 108.133 7.50548 107.838 6.0449 107.245L6.04632 107.248Z" fill="white"/>
<path d="M30.1112 82.9414V107.888H23.9686V82.9414H30.1112Z" fill="white"/>
<path d="M50.2619 103.48H40.851L39.3422 107.887H32.9134L42.0367 82.9399H49.1484L58.2717 107.887H51.7706L50.2619 103.48ZM48.6809 98.7905L45.5557 89.6577L42.4674 98.7905H48.6809Z" fill="white"/>
<path d="M84.7067 82.9414L75.7633 107.888H68.0765L59.1331 82.9414H65.6696L71.9199 101.776L78.2056 82.9414H84.7067Z" fill="white"/>
<path d="M93.3994 87.8091V92.8548H101.625V97.5459H93.3994V103.019H102.703V107.888H87.2581V82.9414H102.703V87.8105H93.3994V87.8091Z" fill="white"/>
<path d="M129.245 107.887H123.103L112.83 92.5002V107.887H106.689V82.9399H112.83L123.103 98.398V82.9399H129.245V107.887Z" fill="white"/>
<path d="M151.838 82.9414V87.8105H145.157V107.888H139.016V87.8105H132.335V82.9414H151.838Z" fill="white"/>
<path d="M4.30809 120.399C3.927 120.238 3.62667 120.006 3.40425 119.704C3.18325 119.401 3.0685 119.044 3.06284 118.631H4.52767C4.5475 118.909 4.64667 119.128 4.82517 119.289C5.00367 119.45 5.25017 119.53 5.56184 119.53C5.8735 119.53 6.13134 119.454 6.31409 119.303C6.49684 119.151 6.5875 118.954 6.5875 118.709C6.5875 118.51 6.52517 118.344 6.40192 118.215C6.27867 118.086 6.12425 117.985 5.93867 117.911C5.75309 117.837 5.49809 117.755 5.17225 117.664C4.72884 117.535 4.37042 117.408 4.09275 117.283C3.8165 117.157 3.5785 116.968 3.38017 116.713C3.18184 116.459 3.08267 116.118 3.08267 115.694C3.08267 115.294 3.18325 114.947 3.38584 114.651C3.587 114.355 3.87034 114.128 4.23584 113.97C4.59992 113.811 5.01642 113.733 5.48534 113.733C6.188 113.733 6.75892 113.903 7.1995 114.24C7.63867 114.578 7.88092 115.05 7.92767 115.656H6.42459C6.41184 115.425 6.31267 115.233 6.12709 115.081C5.9415 114.93 5.69642 114.854 5.39042 114.854C5.12409 114.854 4.91017 114.921 4.7515 115.057C4.59142 115.192 4.51209 115.39 4.51209 115.646C4.51209 115.827 4.57159 115.975 4.69342 116.095C4.81384 116.214 4.964 116.31 5.1425 116.385C5.321 116.459 5.57317 116.544 5.899 116.641C6.341 116.77 6.70225 116.899 6.98275 117.028C7.26325 117.157 7.50409 117.35 7.70525 117.607C7.90642 117.865 8.00842 118.203 8.00842 118.622C8.00842 118.982 7.9135 119.317 7.72509 119.627C7.53667 119.936 7.26042 120.182 6.89492 120.365C6.53084 120.549 6.09734 120.64 5.59584 120.64C5.12125 120.64 4.692 120.56 4.31234 120.399H4.30809Z" fill="white"/>
<path d="M10.5528 113.831V120.574H9.18567V113.831H10.5528Z" fill="white"/>
<path d="M12.9696 120.399C12.5885 120.238 12.2882 120.006 12.0658 119.704C11.8448 119.401 11.73 119.044 11.7243 118.631H13.1892C13.209 118.909 13.3082 119.128 13.4867 119.289C13.6652 119.45 13.9117 119.53 14.2233 119.53C14.535 119.53 14.7928 119.454 14.9756 119.303C15.1583 119.151 15.249 118.954 15.249 118.709C15.249 118.51 15.1867 118.344 15.0634 118.215C14.9402 118.086 14.7858 117.985 14.6002 117.911C14.4146 117.837 14.1596 117.755 13.8338 117.664C13.3903 117.535 13.0319 117.408 12.7543 117.283C12.478 117.157 12.24 116.968 12.0417 116.713C11.8433 116.459 11.7442 116.118 11.7442 115.694C11.7442 115.294 11.8448 114.947 12.0473 114.651C12.2485 114.355 12.5318 114.128 12.8973 113.97C13.2614 113.811 13.6779 113.733 14.1468 113.733C14.8495 113.733 15.4204 113.903 15.861 114.24C16.3002 114.578 16.5424 115.05 16.5892 115.656H15.0861C15.0733 115.425 14.9742 115.233 14.7886 115.081C14.603 114.93 14.3579 114.854 14.0519 114.854C13.7856 114.854 13.5717 114.921 13.413 115.057C13.2529 115.192 13.1736 115.39 13.1736 115.646C13.1736 115.827 13.2331 115.975 13.3549 116.095C13.4753 116.214 13.6255 116.31 13.804 116.385C13.9825 116.459 14.2347 116.544 14.5605 116.641C15.0025 116.77 15.3638 116.899 15.6443 117.028C15.9248 117.157 16.1656 117.35 16.3668 117.607C16.5679 117.865 16.6699 118.203 16.6699 118.622C16.6699 118.982 16.575 119.317 16.3866 119.627C16.1982 119.936 15.9219 120.182 15.5564 120.365C15.1923 120.549 14.7588 120.64 14.2573 120.64C13.7828 120.64 13.3535 120.56 12.9738 120.399H12.9696Z" fill="white"/>
<path d="M22.4839 113.831V114.923H20.6677V120.574H19.3007V114.923H17.4845V113.831H22.4839Z" fill="white"/>
<path d="M24.8469 114.921V116.612H27.1419V117.684H24.8469V119.471H27.4337V120.573H23.4798V113.82H27.4337V114.921H24.8469Z" fill="white"/>
<path d="M36.1052 113.831V120.574H34.7381V116.189L32.912 120.574H31.8764L30.0404 116.189V120.574H28.6733V113.831H30.226L32.3935 118.845L34.561 113.831H36.1038H36.1052Z" fill="white"/>
<path d="M41.6316 119.289H38.9172L38.4682 120.574H37.0331L39.4839 113.821H41.0748L43.5257 120.574H42.0807L41.6316 119.289ZM41.2604 118.207L40.2744 115.385L39.2884 118.207H41.2604Z" fill="white"/>
<path d="M45.5133 120.399C45.1322 120.238 44.8318 120.006 44.6094 119.704C44.3884 119.401 44.2737 119.044 44.268 118.631H45.7328C45.7527 118.909 45.8518 119.128 46.0303 119.289C46.2088 119.45 46.4553 119.53 46.767 119.53C47.0787 119.53 47.3365 119.454 47.5193 119.303C47.702 119.151 47.7927 118.954 47.7927 118.709C47.7927 118.51 47.7303 118.344 47.6071 118.215C47.4838 118.086 47.3294 117.985 47.1438 117.911C46.9583 117.837 46.7033 117.755 46.3774 117.664C45.934 117.535 45.5756 117.408 45.2979 117.283C45.0217 117.157 44.7837 116.968 44.5853 116.713C44.387 116.459 44.2878 116.118 44.2878 115.694C44.2878 115.294 44.3884 114.947 44.591 114.651C44.7922 114.355 45.0755 114.128 45.441 113.97C45.8051 113.811 46.2216 113.733 46.6905 113.733C47.3932 113.733 47.9641 113.903 48.4047 114.24C48.8438 114.578 49.0861 115.05 49.1328 115.656H47.6298C47.617 115.425 47.5178 115.233 47.3323 115.081C47.1467 114.93 46.9016 114.854 46.5956 114.854C46.3293 114.854 46.1153 114.921 45.9567 115.057C45.7966 115.192 45.7173 115.39 45.7173 115.646C45.7173 115.827 45.7768 115.975 45.8986 116.095C46.019 116.214 46.1692 116.31 46.3477 116.385C46.5262 116.459 46.7783 116.544 47.1042 116.641C47.5462 116.77 47.9074 116.899 48.1879 117.028C48.4684 117.157 48.7093 117.35 48.9104 117.607C49.1116 117.865 49.2136 118.203 49.2136 118.622C49.2136 118.982 49.1187 119.317 48.9303 119.627C48.7418 119.936 48.4656 120.182 48.1001 120.365C47.736 120.549 47.3025 120.64 46.801 120.64C46.3264 120.64 45.8972 120.56 45.5175 120.399H45.5133Z" fill="white"/>
<path d="M54.0799 113.831V120.574H52.7128V113.831H54.0799Z" fill="white"/>
<path d="M61.2567 120.573H59.8896L56.7942 115.946V120.573H55.4271V113.82H56.7942L59.8896 118.456V113.82H61.2567V120.573Z" fill="white"/>
<path d="M67.2421 113.831V114.923H65.4259V120.574H64.0588V114.923H62.2427V113.831H67.2421Z" fill="white"/>
<path d="M69.6051 114.921V116.612H71.9001V117.684H69.6051V119.471H72.1919V120.573H68.238V113.82H72.1919V114.921H69.6051Z" fill="white"/>
<path d="M78.1788 115.859C78.0229 115.576 77.8076 115.36 77.5342 115.211C77.2608 115.063 76.942 114.989 76.5779 114.989C76.1742 114.989 75.8158 115.078 75.5041 115.259C75.191 115.44 74.9473 115.698 74.7717 116.031C74.596 116.366 74.5082 116.753 74.5082 117.191C74.5082 117.628 74.5974 118.034 74.7773 118.369C74.9558 118.704 75.2052 118.962 75.5239 119.142C75.8427 119.322 76.2138 119.412 76.6374 119.412C77.1588 119.412 77.5852 119.275 77.9167 119.001C78.2482 118.728 78.4663 118.345 78.5712 117.856H76.228V116.823H79.9184V118.002C79.8278 118.473 79.6323 118.907 79.3333 119.307C79.0344 119.706 78.6477 120.026 78.1759 120.268C77.7042 120.509 77.1758 120.63 76.5893 120.63C75.9319 120.63 75.3383 120.484 74.8071 120.19C74.2758 119.897 73.8593 119.489 73.5576 118.968C73.2544 118.446 73.1028 117.853 73.1028 117.191C73.1028 116.528 73.2544 115.933 73.5576 115.408C73.8608 114.882 74.2773 114.474 74.8071 114.181C75.3369 113.888 75.9277 113.741 76.5793 113.741C77.3472 113.741 78.0144 113.926 78.5811 114.296C79.1478 114.666 79.5373 115.186 79.7527 115.856H78.1802L78.1788 115.859Z" fill="white"/>
<path d="M84.4461 120.573L82.943 117.945H82.2984V120.573H80.9313V113.83H83.4898C84.0168 113.83 84.4659 113.922 84.8371 114.104C85.2082 114.288 85.4859 114.536 85.6715 114.849C85.8571 115.161 85.9492 115.51 85.9492 115.897C85.9492 116.341 85.8188 116.742 85.5582 117.099C85.2975 117.457 84.9107 117.704 84.3965 117.838L86.0271 120.571H84.4447L84.4461 120.573ZM82.2984 116.931H83.4402C83.8114 116.931 84.0877 116.843 84.2704 116.665C84.4532 116.488 84.5438 116.242 84.5438 115.926C84.5438 115.611 84.4532 115.377 84.2704 115.206C84.0877 115.035 83.8114 114.949 83.4402 114.949H82.2984V116.93V116.931Z" fill="white"/>
<path d="M91.3693 119.289H88.655L88.2059 120.574H86.7708L89.2217 113.821H90.8126L93.2634 120.574H91.8184L91.3693 119.289ZM90.9982 118.207L90.0122 115.385L89.0262 118.207H90.9982Z" fill="white"/>
<path d="M95.5485 119.5H97.7939V120.573H94.1814V113.83H95.5485V119.5Z" fill="white"/>
<path d="M100.031 114.921V116.612H102.326V117.684H100.031V119.471H102.618V120.573H98.6638V113.82H102.618V114.921H100.031Z" fill="white"/>
<path d="M104.927 120.399C104.546 120.238 104.245 120.006 104.023 119.704C103.802 119.401 103.687 119.044 103.682 118.631H105.146C105.166 118.909 105.265 119.128 105.444 119.289C105.622 119.45 105.869 119.53 106.181 119.53C106.492 119.53 106.75 119.454 106.933 119.303C107.116 119.151 107.206 118.954 107.206 118.709C107.206 118.51 107.144 118.344 107.021 118.215C106.897 118.086 106.743 117.985 106.557 117.911C106.372 117.837 106.117 117.755 105.791 117.664C105.348 117.535 104.989 117.408 104.711 117.283C104.435 117.157 104.197 116.968 103.999 116.713C103.801 116.459 103.701 116.118 103.701 115.694C103.701 115.294 103.802 114.947 104.005 114.651C104.206 114.355 104.489 114.128 104.855 113.97C105.219 113.811 105.635 113.733 106.104 113.733C106.807 113.733 107.378 113.903 107.818 114.24C108.257 114.578 108.5 115.05 108.545 115.656H107.042C107.029 115.425 106.93 115.233 106.744 115.081C106.559 114.93 106.314 114.854 106.008 114.854C105.741 114.854 105.528 114.921 105.369 115.057C105.209 115.192 105.129 115.39 105.129 115.646C105.129 115.827 105.189 115.975 105.311 116.095C105.431 116.214 105.581 116.31 105.76 116.385C105.938 116.459 106.19 116.544 106.516 116.641C106.958 116.77 107.32 116.899 107.6 117.028C107.879 117.157 108.121 117.35 108.323 117.607C108.524 117.865 108.626 118.203 108.626 118.622C108.626 118.982 108.531 119.317 108.342 119.627C108.154 119.936 107.876 120.182 107.512 120.365C107.148 120.549 106.715 120.64 106.213 120.64C105.739 120.64 105.309 120.56 104.93 120.399H104.927Z" fill="white"/>
<path d="M113.495 114.921V116.612H115.79V117.684H113.495V119.471H116.082V120.573H112.128V113.82H116.082V114.921H113.495Z" fill="white"/>
<path d="M123.152 120.573H121.785L118.69 115.946V120.573H117.323V113.82H118.69L121.785 118.456V113.82H123.152V120.573Z" fill="white"/>
<path d="M131.002 119.289H128.288L127.839 120.574H126.404L128.854 113.821H130.445L132.896 120.574H131.451L131.002 119.289ZM130.631 118.207L129.645 115.385L128.659 118.207H130.631Z" fill="white"/>
<path d="M135.181 113.831V120.574H133.814V113.831H135.181Z" fill="white"/>
<path d="M140.043 120.573L138.54 117.945H137.895V120.573H136.528V113.83H139.087C139.614 113.83 140.063 113.922 140.434 114.104C140.805 114.288 141.083 114.536 141.269 114.849C141.454 115.161 141.548 115.51 141.548 115.897C141.548 116.341 141.417 116.742 141.157 117.099C140.896 117.457 140.509 117.704 139.995 117.838L141.626 120.571H140.043V120.573ZM137.895 116.931H139.037C139.408 116.931 139.685 116.843 139.867 116.665C140.049 116.488 140.141 116.242 140.141 115.926C140.141 115.611 140.05 115.377 139.867 115.206C139.685 115.035 139.408 114.949 139.037 114.949H137.895V116.93V116.931Z" fill="white"/>
<path d="M144.154 114.921V116.612H146.449V117.684H144.154V119.471H146.741V120.573H142.787V113.82H146.741V114.921H144.154Z" fill="white"/>
<path d="M149.475 119.153L148.334 121.868H147.455L148.09 119.153H149.477H149.475Z" fill="white"/>
<path d="M13.7842 125.422L11.2852 132.165H9.62482L7.12582 125.422H8.59066L10.4649 130.783L12.3292 125.422H13.7842Z" fill="white"/>
<path d="M15.9715 126.514V128.204H18.2665V129.276H15.9715V131.063H18.5583V132.165H14.6044V125.412H18.5583V126.514H15.9715Z" fill="white"/>
<path d="M25.6289 132.165H24.2618L21.1664 127.538V132.165H19.7993V125.412H21.1664L24.2618 130.049V125.412H25.6289V132.165Z" fill="white"/>
<path d="M31.6129 125.422V126.514H29.7967V132.165H28.4297V126.514H26.6135V125.422H31.6129Z" fill="white"/>
<path d="M33.9759 125.422V132.165H32.6088V125.422H33.9759Z" fill="white"/>
<path d="M36.6903 131.093H38.9357V132.165H35.3232V125.422H36.6903V131.093Z" fill="white"/>
<path d="M43.9847 130.881H41.2703L40.8213 132.166H39.3862L41.837 125.414H43.4279L45.8788 132.166H44.4338L43.9847 130.881ZM43.6135 129.799L42.6275 126.978L41.6415 129.799H43.6135Z" fill="white"/>
<path d="M46.9186 127.002C47.2218 126.476 47.634 126.068 48.1582 125.776C48.6823 125.483 49.2703 125.335 49.9205 125.335C50.6827 125.335 51.3499 125.529 51.9223 125.914C52.4946 126.301 52.8955 126.835 53.1236 127.518H51.5511C51.3953 127.195 51.1757 126.954 50.8923 126.793C50.609 126.632 50.2818 126.552 49.9106 126.552C49.5139 126.552 49.1598 126.645 48.8509 126.827C48.5421 127.01 48.3013 127.27 48.1284 127.605C47.9556 127.94 47.8692 128.332 47.8692 128.783C47.8692 129.235 47.9556 129.619 48.1284 129.956C48.3013 130.294 48.5421 130.555 48.8509 130.739C49.1598 130.922 49.5139 131.013 49.9106 131.013C50.2818 131.013 50.609 130.931 50.8923 130.767C51.1757 130.603 51.3953 130.359 51.5511 130.038H53.1236C52.8955 130.727 52.4974 131.263 51.9279 131.647C51.3584 132.029 50.6898 132.221 49.9219 132.221C49.2703 132.221 48.6838 132.076 48.1596 131.781C47.6354 131.488 47.2218 131.081 46.92 130.559C46.6168 130.038 46.4667 129.445 46.4667 128.782C46.4667 128.119 46.6183 127.525 46.92 126.999L46.9186 127.002Z" fill="white"/>
<path d="M55.6622 125.422V132.165H54.2952V125.422H55.6622Z" fill="white"/>
<path d="M58.4163 131.79C57.8822 131.494 57.46 131.083 57.1469 130.558C56.8338 130.034 56.678 129.439 56.678 128.775C56.678 128.111 56.8338 127.527 57.1469 127.002C57.46 126.476 57.8822 126.067 58.4163 125.77C58.9503 125.474 59.5354 125.326 60.1743 125.326C60.8133 125.326 61.4054 125.474 61.9367 125.77C62.4665 126.066 62.8873 126.476 63.1961 127.002C63.5049 127.527 63.6593 128.118 63.6593 128.775C63.6593 129.432 63.5049 130.032 63.1961 130.558C62.8873 131.083 62.4651 131.494 61.931 131.79C61.3969 132.085 60.8118 132.234 60.1729 132.234C59.534 132.234 58.9489 132.085 58.4148 131.79H58.4163ZM61.2567 130.751C61.5698 130.568 61.8134 130.305 61.9891 129.963C62.1648 129.621 62.2526 129.226 62.2526 128.775C62.2526 128.324 62.1648 127.93 61.9891 127.592C61.8134 127.254 61.5698 126.995 61.2567 126.814C60.9436 126.635 60.5823 126.544 60.1729 126.544C59.7635 126.544 59.3994 126.633 59.0835 126.814C58.7676 126.995 58.5225 127.254 58.3468 127.592C58.1712 127.93 58.0833 128.325 58.0833 128.775C58.0833 129.225 58.1712 129.621 58.3468 129.963C58.5225 130.305 58.7676 130.568 59.0835 130.751C59.3994 130.935 59.7621 131.026 60.1729 131.026C60.5838 131.026 60.9436 130.935 61.2567 130.751ZM61.2383 124.022L58.9928 125.037V124.071L61.2383 122.922V124.024V124.022Z" fill="white"/>
<path d="M70.5033 132.165H69.1362L66.0408 127.538V132.165H64.6737V125.412H66.0408L69.1362 130.049V125.412H70.5033V132.165Z" fill="white"/>
<path d="M79.594 125.422L77.2891 129.818V132.165H75.922V129.818L73.6086 125.422H75.1513L76.6162 128.504L78.0711 125.422H79.594Z" fill="white"/>
<path d="M84.0763 126.514V128.204H86.3713V129.276H84.0763V131.063H86.6632V132.165H82.7093V125.412H86.6632V126.514H84.0763Z" fill="white"/>
<path d="M91.9842 132.165L90.5094 129.895L89.1721 132.165H87.6293L89.777 128.765L87.5996 125.422H89.1721L90.6468 127.683L91.9742 125.422H93.517L91.3793 128.813L93.5567 132.165H91.9842Z" fill="white"/>
<path d="M99.2389 125.422V126.514H97.4228V132.165H96.0557V126.514H94.2395V125.422H99.2389Z" fill="white"/>
<path d="M103.751 132.165L102.248 129.537H101.603V132.165H100.236V125.422H102.795C103.322 125.422 103.771 125.515 104.142 125.697C104.513 125.881 104.791 126.129 104.976 126.441C105.162 126.754 105.256 127.103 105.256 127.49C105.256 127.934 105.125 128.335 104.865 128.692C104.604 129.05 104.217 129.296 103.703 129.431L105.333 132.164H103.751V132.165ZM101.602 128.524H102.744C103.115 128.524 103.391 128.436 103.574 128.258C103.755 128.081 103.847 127.834 103.847 127.519C103.847 127.204 103.757 126.97 103.574 126.799C103.391 126.628 103.115 126.542 102.744 126.542H101.602V128.523V128.524Z" fill="white"/>
<path d="M110.673 130.881H107.959L107.509 132.166H106.074L108.525 125.414H110.116L112.567 132.166H111.122L110.673 130.881ZM110.302 129.799L109.316 126.978L108.33 129.799H110.302Z" fill="white"/>
<path d="M113.607 127.002C113.91 126.476 114.322 126.068 114.846 125.776C115.371 125.483 115.958 125.335 116.609 125.335C117.371 125.335 118.038 125.529 118.61 125.914C119.183 126.301 119.584 126.835 119.812 127.518H118.239C118.083 127.195 117.864 126.954 117.581 126.793C117.297 126.632 116.97 126.552 116.599 126.552C116.202 126.552 115.848 126.645 115.539 126.827C115.23 127.01 114.989 127.27 114.817 127.605C114.644 127.94 114.557 128.332 114.557 128.783C114.557 129.235 114.644 129.619 114.817 129.956C114.989 130.294 115.23 130.555 115.539 130.739C115.848 130.922 116.202 131.013 116.599 131.013C116.97 131.013 117.297 130.931 117.581 130.767C117.864 130.603 118.083 130.359 118.239 130.038H119.812C119.584 130.727 119.186 131.263 118.616 131.647C118.047 132.029 117.378 132.221 116.61 132.221C115.958 132.221 115.372 132.076 114.848 131.781C114.324 131.488 113.91 131.081 113.608 130.559C113.305 130.038 113.155 129.445 113.155 128.782C113.155 128.119 113.306 127.525 113.608 126.999L113.607 127.002Z" fill="white"/>
<path d="M121.105 127.002C121.408 126.476 121.821 126.068 122.345 125.776C122.869 125.483 123.457 125.335 124.107 125.335C124.869 125.335 125.537 125.529 126.109 125.914C126.681 126.301 127.082 126.835 127.31 127.518H125.738C125.582 127.195 125.362 126.954 125.079 126.793C124.796 126.632 124.468 126.552 124.097 126.552C123.701 126.552 123.346 126.645 123.038 126.827C122.729 127.01 122.488 127.27 122.315 127.605C122.142 127.94 122.056 128.332 122.056 128.783C122.056 129.235 122.142 129.619 122.315 129.956C122.488 130.294 122.729 130.555 123.038 130.739C123.346 130.922 123.701 131.013 124.097 131.013C124.468 131.013 124.796 130.931 125.079 130.767C125.362 130.603 125.582 130.359 125.738 130.038H127.31C127.082 130.727 126.684 131.263 126.115 131.647C125.545 132.029 124.876 132.221 124.109 132.221C123.457 132.221 122.87 132.076 122.346 131.781C121.822 131.488 121.408 131.081 121.107 130.559C120.803 130.038 120.653 129.445 120.653 128.782C120.653 128.119 120.805 127.525 121.107 126.999L121.105 127.002Z" fill="white"/>
<path d="M129.85 125.422V132.165H128.483V125.422H129.85Z" fill="white"/>
<path d="M132.603 131.79C132.069 131.494 131.647 131.083 131.334 130.558C131.02 130.034 130.865 129.439 130.865 128.775C130.865 128.111 131.02 127.527 131.334 127.002C131.647 126.476 132.069 126.067 132.603 125.77C133.137 125.474 133.722 125.326 134.361 125.326C135 125.326 135.592 125.474 136.123 125.77C136.653 126.066 137.074 126.476 137.383 127.002C137.692 127.527 137.846 128.118 137.846 128.775C137.846 129.432 137.692 130.032 137.383 130.558C137.074 131.083 136.652 131.494 136.118 131.79C135.584 132.085 134.998 132.234 134.36 132.234C133.721 132.234 133.136 132.085 132.601 131.79H132.603ZM135.445 130.751C135.758 130.568 136.001 130.305 136.177 129.963C136.353 129.621 136.441 129.226 136.441 128.775C136.441 128.324 136.353 127.93 136.177 127.592C136.001 127.254 135.758 126.995 135.445 126.814C135.132 126.635 134.77 126.544 134.361 126.544C133.952 126.544 133.587 126.633 133.272 126.814C132.956 126.995 132.711 127.254 132.535 127.592C132.359 127.93 132.271 128.325 132.271 128.775C132.271 129.225 132.359 129.621 132.535 129.963C132.711 130.305 132.956 130.568 133.272 130.751C133.587 130.935 133.95 131.026 134.361 131.026C134.772 131.026 135.132 130.935 135.445 130.751ZM135.425 124.022L133.179 125.037V124.071L135.425 122.922V124.024V124.022Z" fill="white"/>
<path d="M144.691 132.165H143.324L140.229 127.538V132.165H138.862V125.412H140.229L143.324 130.049V125.412H144.691V132.165Z" fill="white"/>
<path d="M89.2058 27.6113V11.3081H60.7634C42.6627 11.3081 27.9902 25.8243 27.9902 43.7324C27.9902 61.6404 42.6627 76.1567 60.7634 76.1567C78.8642 76.1567 93.5366 61.6404 93.5366 43.7324C93.5366 37.8639 91.9612 32.3599 89.2058 27.6113Z" fill="white"/>
<path d="M60.765 69.4303C75.1104 69.4303 86.7396 57.9249 86.7396 43.7323C86.7396 29.5396 75.1104 18.0342 60.765 18.0342C46.4196 18.0342 34.7904 29.5396 34.7904 43.7323C34.7904 57.9249 46.4196 69.4303 60.765 69.4303Z" fill="white"/>
<path d="M60.7651 66.3791C73.4072 66.3791 83.6556 56.2398 83.6556 43.7323C83.6556 31.2248 73.4072 21.0854 60.7651 21.0854C48.1231 21.0854 37.8746 31.2248 37.8746 43.7323C37.8746 56.2398 48.1231 66.3791 60.7651 66.3791Z" fill="#E73636"/>
<path d="M60.7652 47.9131C63.0991 47.9131 64.9911 46.0413 64.9911 43.7322C64.9911 41.4231 63.0991 39.5513 60.7652 39.5513C58.4313 39.5513 56.5392 41.4231 56.5392 43.7322C56.5392 46.0413 58.4313 47.9131 60.7652 47.9131Z" fill="white"/>
<path d="M122.286 5.36543V1.06396H106.86V29.4377C106.86 30.0852 107.39 30.6094 108.045 30.6094H122.288V26.3079H109.805V5.36543H122.288H122.286Z" fill="#E73636"/>
<path d="M108.043 30.6065C107.389 30.6065 106.859 30.0823 106.859 29.4348V1.0625C106.859 1.0625 98.8334 9.39353 98.1222 9.95836C97.4097 10.5218 96.5554 11.1091 95.0835 11.1091H91.5702V27.7627H94.6089C96.0723 27.7627 97.5187 28.1019 98.815 28.7718C99.5942 29.1755 100.448 29.7095 101.209 30.3935C102.267 31.3452 103.338 31.9002 104.137 32.2155C104.795 32.4748 105.496 32.6024 106.203 32.6024H119.257L122.286 30.6093H108.043V30.6065Z" fill="white"/>
<path d="M132.234 9.604H112.935V13.9055H132.234V9.604Z" fill="#E73636"/>
<path d="M127.65 17.9561H112.935V22.2575H127.65V17.9561Z" fill="#E73636"/>
</svg>
