<?xml version="1.0" encoding="UTF-8"?>
<svg id="Layer_1" xmlns="http://www.w3.org/2000/svg" version="1.1" viewBox="0 0 1080 956.06">
  <!-- Generator: Adobe Illustrator 29.7.1, SVG Export Plug-In . SVG Version: 2.1.1 Build 8)  -->
  <defs>
    <style>
      .st0 {
        fill: #032039;
      }

      .st1 {
        fill: #e41c1d;
      }

      .st2 {
        fill: #fafeff;
      }
    </style>
  </defs>
  <g>
    <path class="st0" d="M42.68,765.19c-10.31-4.22-18.55-10.48-24.72-18.76-6.17-8.28-9.42-18.25-9.76-29.92h46.14c.67,6.59,2.96,11.62,6.85,15.08,3.89,3.47,8.96,5.2,15.21,5.2s11.49-1.48,15.21-4.44c3.72-2.96,5.58-7.06,5.58-12.3,0-4.39-1.48-8.03-4.44-10.9-2.96-2.87-6.59-5.24-10.9-7.1-4.31-1.86-10.44-3.97-18.38-6.34-11.5-3.55-20.88-7.1-28.14-10.65-7.27-3.55-13.52-8.79-18.76-15.72-5.24-6.93-7.86-15.97-7.86-27.13,0-16.56,6-29.54,18-38.92,12-9.38,27.64-14.07,46.9-14.07s35.41,4.69,47.41,14.07c12,9.38,18.42,22.44,19.27,39.17h-46.9c-.34-5.75-2.45-10.27-6.34-13.57-3.89-3.3-8.87-4.94-14.96-4.94-5.24,0-9.47,1.39-12.68,4.19-3.21,2.79-4.82,6.81-4.82,12.04,0,5.75,2.7,10.23,8.11,13.44,5.41,3.21,13.86,6.68,25.35,10.39,11.49,3.89,20.83,7.61,28.02,11.16,7.18,3.55,13.39,8.71,18.63,15.46,5.24,6.76,7.86,15.47,7.86,26.12s-2.58,19.36-7.73,27.64c-5.16,8.28-12.64,14.88-22.44,19.77-9.8,4.91-21.38,7.35-34.73,7.35s-24.68-2.11-34.99-6.34Z"/>
    <path class="st0" d="M212.55,591.77v177.99h-43.36v-177.99h43.36Z"/>
    <path class="st0" d="M354.79,738.31h-66.43l-10.65,31.44h-45.38l64.4-177.99h50.2l64.4,177.99h-45.89l-10.65-31.44ZM343.63,704.85l-22.06-65.16-21.8,65.16h43.86Z"/>
    <path class="st0" d="M597.93,591.77l-63.13,177.99h-54.26l-63.13-177.99h46.14l44.12,134.38,44.37-134.38h45.89Z"/>
    <path class="st0" d="M659.29,626.5v36h58.06v33.47h-58.06v39.05h65.67v34.74h-109.02v-177.99h109.02v34.74h-65.67Z"/>
    <path class="st0" d="M912.32,769.75h-43.36l-72.51-109.78v109.78h-43.35v-177.99h43.35l72.51,110.29v-110.29h43.36v177.99Z"/>
    <path class="st0" d="M1071.8,591.77v34.74h-47.16v143.25h-43.35v-143.25h-47.16v-34.74h137.67Z"/>
  </g>
  <g>
    <path class="st0" d="M30.41,859.02c-2.69-1.15-4.81-2.8-6.38-4.96-1.56-2.16-2.37-4.71-2.41-7.65h10.34c.14,1.98.84,3.54,2.1,4.69,1.26,1.15,3,1.72,5.2,1.72s4.02-.54,5.31-1.62c1.29-1.08,1.93-2.49,1.93-4.24,0-1.42-.44-2.6-1.31-3.52-.87-.92-1.96-1.64-3.27-2.17-1.31-.53-3.11-1.11-5.41-1.76-3.13-.92-5.66-1.83-7.62-2.72-1.95-.9-3.63-2.25-5.03-4.07-1.4-1.81-2.1-4.24-2.1-7.27,0-2.85.71-5.33,2.14-7.44,1.42-2.11,3.42-3.73,6-4.86,2.57-1.13,5.51-1.69,8.82-1.69,4.96,0,8.99,1.21,12.1,3.62,3.1,2.41,4.81,5.78,5.14,10.1h-10.61c-.09-1.65-.79-3.02-2.1-4.1-1.31-1.08-3.04-1.62-5.2-1.62-1.88,0-3.39.48-4.51,1.45-1.13.96-1.69,2.37-1.69,4.2,0,1.29.42,2.35,1.28,3.2.85.85,1.91,1.54,3.17,2.07,1.26.53,3.04,1.14,5.34,1.83,3.12.92,5.67,1.84,7.65,2.76s3.68,2.3,5.1,4.13c1.42,1.84,2.14,4.25,2.14,7.24,0,2.57-.67,4.96-2,7.17s-3.28,3.96-5.86,5.27c-2.57,1.31-5.63,1.96-9.17,1.96-3.35,0-6.38-.57-9.06-1.72Z"/>
    <path class="st0" d="M74.49,812.16v48.11h-9.65v-48.11h9.65Z"/>
    <path class="st0" d="M91.55,859.02c-2.69-1.15-4.81-2.8-6.38-4.96-1.56-2.16-2.37-4.71-2.41-7.65h10.34c.14,1.98.84,3.54,2.1,4.69,1.26,1.15,3,1.72,5.2,1.72s4.02-.54,5.31-1.62c1.29-1.08,1.93-2.49,1.93-4.24,0-1.42-.44-2.6-1.31-3.52-.87-.92-1.96-1.64-3.27-2.17-1.31-.53-3.11-1.11-5.41-1.76-3.13-.92-5.66-1.83-7.62-2.72-1.95-.9-3.63-2.25-5.03-4.07-1.4-1.81-2.1-4.24-2.1-7.27,0-2.85.71-5.33,2.14-7.44,1.42-2.11,3.42-3.73,6-4.86,2.57-1.13,5.51-1.69,8.82-1.69,4.96,0,8.99,1.21,12.1,3.62,3.1,2.41,4.81,5.78,5.14,10.1h-10.61c-.09-1.65-.79-3.02-2.1-4.1-1.31-1.08-3.04-1.62-5.2-1.62-1.88,0-3.39.48-4.51,1.45-1.13.96-1.69,2.37-1.69,4.2,0,1.29.42,2.35,1.28,3.2.85.85,1.91,1.54,3.17,2.07,1.26.53,3.04,1.14,5.34,1.83,3.12.92,5.67,1.84,7.65,2.76s3.68,2.3,5.1,4.13c1.42,1.84,2.14,4.25,2.14,7.24,0,2.57-.67,4.96-2,7.17s-3.28,3.96-5.86,5.27c-2.57,1.31-5.63,1.96-9.17,1.96-3.35,0-6.38-.57-9.06-1.72Z"/>
    <path class="st0" d="M158.71,812.16v7.79h-12.82v40.32h-9.65v-40.32h-12.82v-7.79h35.29Z"/>
    <path class="st0" d="M175.39,819.94v12.06h16.2v7.65h-16.2v12.75h18.26v7.86h-27.91v-48.18h27.91v7.86h-18.26Z"/>
    <path class="st0" d="M254.86,812.16v48.11h-9.65v-31.29l-12.89,31.29h-7.31l-12.96-31.29v31.29h-9.65v-48.11h10.96l15.3,35.77,15.3-35.77h10.89Z"/>
    <path class="st0" d="M293.87,851.1h-19.16l-3.17,9.17h-10.13l17.3-48.18h11.23l17.3,48.18h-10.2l-3.17-9.17ZM291.25,843.38l-6.96-20.13-6.96,20.13h13.92Z"/>
    <path class="st0" d="M321.27,859.02c-2.69-1.15-4.81-2.8-6.38-4.96-1.56-2.16-2.37-4.71-2.41-7.65h10.34c.14,1.98.84,3.54,2.1,4.69,1.26,1.15,3,1.72,5.2,1.72s4.02-.54,5.31-1.62c1.29-1.08,1.93-2.49,1.93-4.24,0-1.42-.44-2.6-1.31-3.52-.87-.92-1.96-1.64-3.27-2.17-1.31-.53-3.11-1.11-5.41-1.76-3.13-.92-5.66-1.83-7.62-2.72-1.95-.9-3.63-2.25-5.03-4.07-1.4-1.81-2.1-4.24-2.1-7.27,0-2.85.71-5.33,2.14-7.44,1.42-2.11,3.42-3.73,6-4.86,2.57-1.13,5.51-1.69,8.82-1.69,4.96,0,8.99,1.21,12.1,3.62,3.1,2.41,4.81,5.78,5.14,10.1h-10.61c-.09-1.65-.79-3.02-2.1-4.1-1.31-1.08-3.04-1.62-5.2-1.62-1.88,0-3.39.48-4.51,1.45-1.13.96-1.69,2.37-1.69,4.2,0,1.29.42,2.35,1.28,3.2.85.85,1.91,1.54,3.17,2.07,1.26.53,3.04,1.14,5.34,1.83,3.12.92,5.67,1.84,7.65,2.76s3.68,2.3,5.1,4.13c1.42,1.84,2.14,4.25,2.14,7.24,0,2.57-.67,4.96-2,7.17s-3.28,3.96-5.86,5.27c-2.57,1.31-5.63,1.96-9.17,1.96-3.35,0-6.38-.57-9.06-1.72Z"/>
    <path class="st0" d="M381.74,812.16v48.11h-9.65v-48.11h9.65Z"/>
    <path class="st0" d="M432.4,860.26h-9.65l-21.85-33.01v33.01h-9.65v-48.18h9.65l21.85,33.08v-33.08h9.65v48.18Z"/>
    <path class="st0" d="M474.65,812.16v7.79h-12.82v40.32h-9.65v-40.32h-12.82v-7.79h35.29Z"/>
    <path class="st0" d="M491.33,819.94v12.06h16.2v7.65h-16.2v12.75h18.26v7.86h-27.91v-48.18h27.91v7.86h-18.26Z"/>
    <path class="st0" d="M551.85,826.63c-1.1-2.02-2.62-3.56-4.55-4.62-1.93-1.06-4.18-1.59-6.75-1.59-2.85,0-5.38.64-7.58,1.93-2.21,1.29-3.93,3.13-5.17,5.51-1.24,2.39-1.86,5.15-1.86,8.27s.63,6.02,1.9,8.41c1.26,2.39,3.02,4.23,5.27,5.51,2.25,1.29,4.87,1.93,7.86,1.93,3.68,0,6.69-.98,9.03-2.93s3.88-4.68,4.62-8.17h-16.54v-7.37h26.05v8.41c-.64,3.36-2.02,6.46-4.13,9.31-2.11,2.85-4.84,5.13-8.17,6.86-3.33,1.72-7.06,2.58-11.2,2.58-4.64,0-8.83-1.04-12.58-3.14-3.75-2.09-6.69-5-8.82-8.72-2.14-3.72-3.21-7.95-3.21-12.68s1.07-8.97,3.21-12.72c2.14-3.75,5.08-6.66,8.82-8.75,3.74-2.09,7.91-3.14,12.51-3.14,5.42,0,10.13,1.32,14.13,3.96,4,2.64,6.75,6.35,8.27,11.13h-11.1Z"/>
    <path class="st0" d="M596.09,860.26l-10.61-18.75h-4.55v18.75h-9.65v-48.11h18.06c3.72,0,6.89.66,9.51,1.96,2.62,1.31,4.58,3.08,5.89,5.31s1.96,4.72,1.96,7.48c0,3.17-.92,6.03-2.76,8.58-1.84,2.55-4.57,4.31-8.2,5.27l11.51,19.5h-11.17ZM580.93,834.28h8.06c2.62,0,4.57-.63,5.86-1.9,1.29-1.26,1.93-3.02,1.93-5.27s-.64-3.92-1.93-5.14c-1.29-1.22-3.24-1.83-5.86-1.83h-8.06v14.13Z"/>
    <path class="st0" d="M644.96,851.1h-19.16l-3.17,9.17h-10.13l17.3-48.18h11.23l17.3,48.18h-10.2l-3.17-9.17ZM642.34,843.38l-6.96-20.13-6.96,20.13h13.92Z"/>
    <path class="st0" d="M674.46,852.61h15.85v7.65h-25.5v-48.11h9.65v40.46Z"/>
    <path class="st0" d="M706.1,819.94v12.06h16.2v7.65h-16.2v12.75h18.26v7.86h-27.91v-48.18h27.91v7.86h-18.26Z"/>
    <path class="st0" d="M740.66,859.02c-2.69-1.15-4.81-2.8-6.38-4.96-1.56-2.16-2.37-4.71-2.41-7.65h10.34c.14,1.98.84,3.54,2.1,4.69,1.26,1.15,3,1.72,5.2,1.72s4.02-.54,5.31-1.62c1.29-1.08,1.93-2.49,1.93-4.24,0-1.42-.44-2.6-1.31-3.52-.87-.92-1.96-1.64-3.27-2.17-1.31-.53-3.11-1.11-5.41-1.76-3.13-.92-5.66-1.83-7.62-2.72-1.95-.9-3.63-2.25-5.03-4.07-1.4-1.81-2.1-4.24-2.1-7.27,0-2.85.71-5.33,2.14-7.44,1.42-2.11,3.42-3.73,6-4.86,2.57-1.13,5.51-1.69,8.82-1.69,4.96,0,8.99,1.21,12.1,3.62,3.1,2.41,4.81,5.78,5.13,10.1h-10.61c-.09-1.65-.79-3.02-2.1-4.1-1.31-1.08-3.04-1.62-5.2-1.62-1.88,0-3.39.48-4.51,1.45-1.13.96-1.69,2.37-1.69,4.2,0,1.29.42,2.35,1.28,3.2.85.85,1.91,1.54,3.17,2.07,1.26.53,3.04,1.14,5.34,1.83,3.12.92,5.67,1.84,7.65,2.76,1.97.92,3.68,2.3,5.1,4.13,1.42,1.84,2.14,4.25,2.14,7.24,0,2.57-.67,4.96-2,7.17-1.33,2.21-3.29,3.96-5.86,5.27-2.57,1.31-5.63,1.96-9.17,1.96-3.35,0-6.38-.57-9.06-1.72Z"/>
    <path class="st0" d="M801.14,819.94v12.06h16.2v7.65h-16.2v12.75h18.26v7.86h-27.91v-48.18h27.91v7.86h-18.26Z"/>
    <path class="st0" d="M869.31,860.26h-9.65l-21.85-33.01v33.01h-9.65v-48.18h9.65l21.85,33.08v-33.08h9.65v48.18Z"/>
    <path class="st0" d="M924.72,851.1h-19.16l-3.17,9.17h-10.13l17.3-48.18h11.23l17.3,48.18h-10.2l-3.17-9.17ZM922.1,843.38l-6.96-20.13-6.96,20.13h13.92Z"/>
    <path class="st0" d="M954.22,812.16v48.11h-9.65v-48.11h9.65Z"/>
    <path class="st0" d="M988.54,860.26l-10.61-18.75h-4.55v18.75h-9.65v-48.11h18.06c3.72,0,6.89.66,9.51,1.96,2.62,1.31,4.58,3.08,5.89,5.31,1.31,2.23,1.97,4.72,1.97,7.48,0,3.17-.92,6.03-2.76,8.58s-4.57,4.31-8.2,5.27l11.51,19.5h-11.17ZM973.38,834.28h8.06c2.62,0,4.57-.63,5.86-1.9,1.28-1.26,1.93-3.02,1.93-5.27s-.64-3.92-1.93-5.14c-1.29-1.22-3.24-1.83-5.86-1.83h-8.06v14.13Z"/>
    <path class="st0" d="M1017.56,819.94v12.06h16.2v7.65h-16.2v12.75h18.26v7.86h-27.91v-48.18h27.91v7.86h-18.26Z"/>
    <path class="st0" d="M1055.12,850.13l-8.06,19.37h-6.2l4.48-19.37h9.79Z"/>
    <path class="st0" d="M97.3,894.86l-17.64,48.11h-11.72l-17.64-48.11h10.34l13.23,38.25,13.16-38.25h10.27Z"/>
    <path class="st0" d="M112.74,902.65v12.06h16.2v7.65h-16.2v12.75h18.26v7.86h-27.91v-48.18h27.91v7.86h-18.26Z"/>
    <path class="st0" d="M180.91,942.97h-9.65l-21.85-33.01v33.01h-9.65v-48.18h9.65l21.85,33.08v-33.08h9.65v48.18Z"/>
    <path class="st0" d="M223.15,894.86v7.79h-12.82v40.32h-9.65v-40.32h-12.82v-7.79h35.29Z"/>
    <path class="st0" d="M239.83,894.86v48.11h-9.65v-48.11h9.65Z"/>
    <path class="st0" d="M258.99,935.32h15.85v7.65h-25.5v-48.11h9.65v40.46Z"/>
    <path class="st0" d="M310.48,933.81h-19.16l-3.17,9.17h-10.13l17.3-48.18h11.23l17.3,48.18h-10.2l-3.17-9.17ZM307.86,926.09l-6.96-20.13-6.96,20.13h13.92Z"/>
    <path class="st0" d="M331.19,906.13c2.14-3.75,5.05-6.66,8.75-8.75,3.7-2.09,7.85-3.14,12.44-3.14,5.38,0,10.09,1.38,14.13,4.13,4.04,2.76,6.87,6.57,8.48,11.44h-11.1c-1.1-2.3-2.65-4.02-4.65-5.17-2-1.15-4.31-1.72-6.93-1.72-2.8,0-5.3.66-7.48,1.96-2.18,1.31-3.88,3.16-5.1,5.55-1.22,2.39-1.83,5.19-1.83,8.41s.61,5.96,1.83,8.37c1.22,2.41,2.92,4.27,5.1,5.58,2.18,1.31,4.68,1.96,7.48,1.96,2.62,0,4.93-.59,6.93-1.76s3.55-2.91,4.65-5.2h11.1c-1.61,4.92-4.42,8.74-8.44,11.48-4.02,2.73-8.74,4.1-14.16,4.1-4.6,0-8.74-1.04-12.44-3.14-3.7-2.09-6.62-5-8.75-8.72-2.14-3.72-3.2-7.95-3.2-12.68s1.07-8.97,3.2-12.72Z"/>
    <path class="st0" d="M392.91,894.86v48.11h-9.65v-48.11h9.65Z"/>
    <path class="st0" d="M412.35,940.29c-3.77-2.11-6.75-5.04-8.96-8.79-2.21-3.74-3.31-7.98-3.31-12.72s1.1-8.9,3.31-12.65,5.19-6.67,8.96-8.79c3.77-2.11,7.9-3.17,12.41-3.17s8.69,1.06,12.44,3.17c3.74,2.11,6.71,5.04,8.89,8.79,2.18,3.75,3.27,7.96,3.27,12.65s-1.09,8.97-3.27,12.72c-2.18,3.75-5.16,6.68-8.93,8.79-3.77,2.11-7.9,3.17-12.41,3.17s-8.64-1.06-12.41-3.17ZM432.4,932.88c2.21-1.31,3.93-3.18,5.17-5.62s1.86-5.26,1.86-8.48-.62-6.03-1.86-8.44-2.96-4.26-5.17-5.55c-2.21-1.28-4.76-1.93-7.65-1.93s-5.46.64-7.69,1.93c-2.23,1.29-3.96,3.14-5.2,5.55-1.24,2.41-1.86,5.23-1.86,8.44s.62,6.04,1.86,8.48c1.24,2.44,2.97,4.31,5.2,5.62,2.23,1.31,4.79,1.96,7.69,1.96s5.44-.65,7.65-1.96ZM432.27,884.87l-15.85,7.24v-6.89l15.85-8.2v7.86Z"/>
    <path class="st0" d="M497.67,942.97h-9.65l-21.85-33.01v33.01h-9.65v-48.18h9.65l21.85,33.08v-33.08h9.65v48.18Z"/>
    <path class="st0" d="M561.84,894.86l-16.27,31.36v16.75h-9.65v-16.75l-16.33-31.36h10.89l10.34,21.99,10.27-21.99h10.75Z"/>
    <path class="st0" d="M593.48,902.65v12.06h16.2v7.65h-16.2v12.75h18.26v7.86h-27.91v-48.18h27.91v7.86h-18.26Z"/>
    <path class="st0" d="M649.3,942.97l-10.41-16.2-9.44,16.2h-10.89l15.16-24.26-15.37-23.85h11.1l10.41,16.13,9.37-16.13h10.89l-15.09,24.19,15.37,23.92h-11.1Z"/>
    <path class="st0" d="M700.51,894.86v7.79h-12.82v40.32h-9.65v-40.32h-12.82v-7.79h35.29Z"/>
    <path class="st0" d="M732.36,942.97l-10.61-18.75h-4.55v18.75h-9.65v-48.11h18.06c3.72,0,6.89.66,9.51,1.96,2.62,1.31,4.58,3.08,5.89,5.31,1.31,2.23,1.97,4.72,1.97,7.48,0,3.17-.92,6.03-2.76,8.58s-4.57,4.31-8.2,5.27l11.51,19.5h-11.17ZM717.19,916.99h8.06c2.62,0,4.57-.63,5.86-1.9,1.28-1.26,1.93-3.02,1.93-5.27s-.64-3.92-1.93-5.14c-1.29-1.22-3.24-1.83-5.86-1.83h-8.06v14.13Z"/>
    <path class="st0" d="M781.22,933.81h-19.16l-3.17,9.17h-10.13l17.3-48.18h11.23l17.3,48.18h-10.2l-3.17-9.17ZM778.6,926.09l-6.96-20.13-6.96,20.13h13.92Z"/>
    <path class="st0" d="M801.93,906.13c2.14-3.75,5.05-6.66,8.75-8.75,3.7-2.09,7.85-3.14,12.44-3.14,5.38,0,10.09,1.38,14.13,4.13,4.04,2.76,6.87,6.57,8.48,11.44h-11.1c-1.1-2.3-2.65-4.02-4.65-5.17-2-1.15-4.31-1.72-6.93-1.72-2.8,0-5.3.66-7.48,1.96-2.18,1.31-3.88,3.16-5.1,5.55-1.22,2.39-1.83,5.19-1.83,8.41s.61,5.96,1.83,8.37c1.22,2.41,2.92,4.27,5.1,5.58,2.18,1.31,4.68,1.96,7.48,1.96,2.62,0,4.93-.59,6.93-1.76s3.55-2.91,4.65-5.2h11.1c-1.61,4.92-4.42,8.74-8.44,11.48-4.02,2.73-8.74,4.1-14.16,4.1-4.6,0-8.74-1.04-12.44-3.14-3.7-2.09-6.62-5-8.75-8.72-2.14-3.72-3.2-7.95-3.2-12.68s1.07-8.97,3.2-12.72Z"/>
    <path class="st0" d="M854.86,906.13c2.14-3.75,5.05-6.66,8.75-8.75,3.7-2.09,7.85-3.14,12.44-3.14,5.38,0,10.09,1.38,14.13,4.13,4.04,2.76,6.87,6.57,8.48,11.44h-11.1c-1.1-2.3-2.65-4.02-4.65-5.17-2-1.15-4.31-1.72-6.93-1.72-2.8,0-5.3.66-7.48,1.96-2.18,1.31-3.88,3.16-5.1,5.55-1.22,2.39-1.83,5.19-1.83,8.41s.61,5.96,1.83,8.37c1.22,2.41,2.92,4.27,5.1,5.58,2.18,1.31,4.68,1.96,7.48,1.96,2.62,0,4.93-.59,6.93-1.76s3.55-2.91,4.65-5.2h11.1c-1.61,4.92-4.42,8.74-8.44,11.48-4.02,2.73-8.74,4.1-14.16,4.1-4.6,0-8.74-1.04-12.44-3.14-3.7-2.09-6.62-5-8.75-8.72-2.14-3.72-3.2-7.95-3.2-12.68s1.07-8.97,3.2-12.72Z"/>
    <path class="st0" d="M916.59,894.86v48.11h-9.65v-48.11h9.65Z"/>
    <path class="st0" d="M936.02,940.29c-3.77-2.11-6.75-5.04-8.96-8.79-2.21-3.74-3.31-7.98-3.31-12.72s1.1-8.9,3.31-12.65,5.19-6.67,8.96-8.79c3.77-2.11,7.9-3.17,12.41-3.17s8.69,1.06,12.44,3.17c3.74,2.11,6.71,5.04,8.89,8.79,2.18,3.75,3.27,7.96,3.27,12.65s-1.09,8.97-3.27,12.72c-2.18,3.75-5.16,6.68-8.93,8.79-3.77,2.11-7.9,3.17-12.41,3.17s-8.64-1.06-12.41-3.17ZM956.08,932.88c2.21-1.31,3.93-3.18,5.17-5.62s1.86-5.26,1.86-8.48-.62-6.03-1.86-8.44-2.96-4.26-5.17-5.55c-2.21-1.28-4.76-1.93-7.65-1.93s-5.46.64-7.69,1.93c-2.23,1.29-3.96,3.14-5.2,5.55-1.24,2.41-1.86,5.23-1.86,8.44s.62,6.04,1.86,8.48c1.24,2.44,2.97,4.31,5.2,5.62,2.23,1.31,4.79,1.96,7.69,1.96s5.44-.65,7.65-1.96ZM955.94,884.87l-15.85,7.24v-6.89l15.85-8.2v7.86Z"/>
    <path class="st0" d="M1021.35,942.97h-9.65l-21.85-33.01v33.01h-9.65v-48.18h9.65l21.85,33.08v-33.08h9.65v48.18Z"/>
  </g>
  <g>
    <path class="st0" d="M629.69,197v-116.32h-200.77c-127.77,0-231.34,103.57-231.34,231.34s103.57,231.34,231.34,231.34,231.34-103.57,231.34-231.34c0-41.87-11.12-81.14-30.57-115.02Z"/>
    <circle class="st2" cx="428.93" cy="312.02" r="183.35"/>
    <circle class="st1" cx="428.93" cy="312.02" r="161.58"/>
    <circle class="st2" cx="428.93" cy="312.02" r="29.83"/>
    <g>
      <path class="st2" d="M428.92,259.69c4.25,0,8.39.51,12.36,1.43,3.96-27.26,9.59-54.37,15.45-81.22-8.98-1.85-18.28-2.83-27.81-2.83-10.06,0-19.86,1.1-29.3,3.16,1.81,27.64,6.1,55.18,11.38,82.51,5.61-1.96,11.64-3.04,17.92-3.04Z"/>
      <path class="st2" d="M395.42,271.29c-18.85-20.09-36.53-41.38-53.87-62.7-14.71,12.22-26.82,27.46-35.37,44.78,22.74,15.81,46.94,29.62,71.6,42.53,3.45-9.8,9.64-18.3,17.64-24.61Z"/>
      <path class="st2" d="M374.71,313.9c0-.18.01-.35.01-.53-27.45,2.21-55.13,2.76-82.6,3.03.36,19.85,4.94,38.66,12.88,55.58,26.54-7.92,52.42-18.23,77.89-29.46-5.18-8.31-8.18-18.11-8.18-28.62Z"/>
      <path class="st2" d="M394.62,355.88c-15.39,22.84-32.22,44.82-49.14,66.47,15.01,11.57,32.48,20.08,51.5,24.63,10.36-25.68,18.44-52.34,25.54-79.25-10.52-1.24-20.11-5.48-27.9-11.85Z"/>
      <path class="st2" d="M440.36,366.9c8.26,26.28,14.95,53.15,21.32,79.89,19-4.67,36.44-13.3,51.39-24.97-13.61-24.11-29.41-47.05-46.01-69.38-7.21,7.14-16.41,12.26-26.7,14.46Z"/>
      <path class="st2" d="M482.81,307.96c.21,1.95.33,3.93.33,5.94,0,8.62-2.02,16.76-5.59,23.99,25.7,9.93,50.87,21.46,75.75,33.15,7.83-17,12.26-35.89,12.45-55.79-27.34-4.4-55.12-6.35-82.94-7.29Z"/>
      <path class="st2" d="M457.76,268c8.7,5.48,15.73,13.35,20.17,22.7,23.78-13.9,48.49-26.39,73.13-38.55-8.74-17.25-21.02-32.39-35.88-44.48-20.49,18.64-39.34,39.16-57.41,60.32Z"/>
    </g>
    <path class="st1" d="M863.2,38.28V7.59h-108.89v202.44c0,4.62,3.74,8.36,8.36,8.36h100.54v-30.69h-88.11V38.28h88.11Z"/>
    <path class="st0" d="M762.66,218.37c-4.62,0-8.36-3.74-8.36-8.36V7.58s-56.65,59.44-61.67,63.47c-5.03,4.02-11.06,8.21-21.45,8.21h-24.8v118.82h21.45c10.33,0,20.54,2.42,29.69,7.2,5.5,2.88,11.53,6.69,16.9,11.57,7.47,6.79,15.03,10.75,20.67,13,4.64,1.85,9.59,2.76,14.58,2.76h92.15l21.38-14.22h-100.54Z"/>
    <rect class="st1" x="797.19" y="68.52" width="136.23" height="30.69"/>
    <rect class="st1" x="797.19" y="128.11" width="103.87" height="30.69"/>
  </g>
</svg>